<svg width="473" height="234" viewBox="0 0 473 234" fill="none" xmlns="http://www.w3.org/2000/svg">
<path d="M191.912 98.7715V90.9672" stroke="#AEC0B1" stroke-width="1.5" stroke-miterlimit="10" stroke-linecap="round"/>
<path d="M187.652 94.8691H195.944" stroke="#AEC0B1" stroke-width="1.5" stroke-miterlimit="10" stroke-linecap="round"/>
<path d="M233.535 163.33V155.526" stroke="#AEC0B1" stroke-width="1.5" stroke-miterlimit="10" stroke-linecap="round"/>
<path d="M229.275 159.428H237.567" stroke="#AEC0B1" stroke-width="1.5" stroke-miterlimit="10" stroke-linecap="round"/>
<path d="M98.2598 79V86.8043" stroke="#AEC0B1" stroke-width="1.5" stroke-miterlimit="10" stroke-linecap="round"/>
<path d="M94 82.9023H102.292" stroke="#AEC0B1" stroke-width="1.5" stroke-miterlimit="10" stroke-linecap="round"/>
<path d="M124.805 102.172V94.3675" stroke="#AEC0B1" stroke-width="1.5" stroke-miterlimit="10" stroke-linecap="round"/>
<path d="M120.545 98.2695H128.837" stroke="#AEC0B1" stroke-width="1.5" stroke-miterlimit="10" stroke-linecap="round"/>
<path d="M99.0898 192.67V200.474" stroke="#AEC0B1" stroke-width="1.5" stroke-miterlimit="10" stroke-linecap="round"/>
<path d="M94.8301 196.572H103.122" stroke="#AEC0B1" stroke-width="1.5" stroke-miterlimit="10" stroke-linecap="round"/>
<path d="M463.002 185.768V193.572" stroke="#AEC0B1" stroke-width="1.5" stroke-miterlimit="10" stroke-linecap="round"/>
<path d="M458.742 189.67H467.034" stroke="#AEC0B1" stroke-width="1.5" stroke-miterlimit="10" stroke-linecap="round"/>
<path d="M163.982 208.768V200.963" stroke="#AEC0B1" stroke-width="1.5" stroke-miterlimit="10" stroke-linecap="round"/>
<path d="M159.723 204.865H168.015" stroke="#AEC0B1" stroke-width="1.5" stroke-miterlimit="10" stroke-linecap="round"/>
<path d="M462.891 126.824V119.02" stroke="#AEC0B1" stroke-width="1.5" stroke-miterlimit="10" stroke-linecap="round"/>
<path d="M458.631 122.922H466.923" stroke="#AEC0B1" stroke-width="1.5" stroke-miterlimit="10" stroke-linecap="round"/>
<path d="M62.7969 139.389V147.193" stroke="#AEC0B1" stroke-width="1.5" stroke-miterlimit="10" stroke-linecap="round"/>
<path d="M58.5371 143.291H66.8292" stroke="#AEC0B1" stroke-width="1.5" stroke-miterlimit="10" stroke-linecap="round"/>
<path d="M297.812 141.213V149.017" stroke="#AEC0B1" stroke-width="1.5" stroke-miterlimit="10" stroke-linecap="round"/>
<path d="M293.553 145.115H301.845" stroke="#AEC0B1" stroke-width="1.5" stroke-miterlimit="10" stroke-linecap="round"/>
<path d="M315.934 80.7734V88.5778" stroke="#AEC0B1" stroke-width="1.5" stroke-miterlimit="10" stroke-linecap="round"/>
<path d="M311.674 84.6758H319.966" stroke="#AEC0B1" stroke-width="1.5" stroke-miterlimit="10" stroke-linecap="round"/>
<path d="M3.86089 160.386C5.36325 160.386 6.58115 159.168 6.58115 157.666C6.58115 156.163 5.36325 154.945 3.86089 154.945C2.35854 154.945 1.14062 156.163 1.14062 157.666C1.14062 159.168 2.35854 160.386 3.86089 160.386Z" stroke="#AEC0B1" stroke-width="1.5" stroke-miterlimit="10" stroke-linecap="round"/>
<path d="M101.72 129.441C103.223 129.441 104.441 128.223 104.441 126.72C104.441 125.218 103.223 124 101.72 124C100.218 124 99 125.218 99 126.72C99 128.223 100.218 129.441 101.72 129.441Z" stroke="#AEC0B1" stroke-width="1.5" stroke-miterlimit="10" stroke-linecap="round"/>
<path d="M408.72 52.0009C410.223 52.0009 411.441 53.2188 411.441 54.7212C411.441 56.2235 410.223 57.4414 408.72 57.4414C407.218 57.4414 406 56.2235 406 54.7212C406 53.2188 407.218 52.0009 408.72 52.0009Z" stroke="#AEC0B1" stroke-width="1.5" stroke-miterlimit="10" stroke-linecap="round"/>
<path d="M13.6851 96.4093C15.1875 96.4093 16.4054 95.1914 16.4054 93.689C16.4054 92.1866 15.1875 90.9688 13.6851 90.9688C12.1828 90.9688 10.9648 92.1866 10.9648 93.689C10.9648 95.1914 12.1828 96.4093 13.6851 96.4093Z" stroke="#AEC0B1" stroke-width="1.5" stroke-miterlimit="10" stroke-linecap="round"/>
<path d="M416.72 187.001C418.223 187.001 419.441 188.219 419.441 189.721C419.441 191.224 418.223 192.441 416.72 192.441C415.218 192.441 414 191.224 414 189.721C414 188.219 415.218 187.001 416.72 187.001Z" stroke="#AEC0B1" stroke-width="1.5" stroke-miterlimit="10" stroke-linecap="round"/>
<path d="M249.836 112.548C251.338 112.548 252.556 111.33 252.556 109.828C252.556 108.325 251.338 107.107 249.836 107.107C248.333 107.107 247.115 108.325 247.115 109.828C247.115 111.33 248.333 112.548 249.836 112.548Z" stroke="#AEC0B1" stroke-width="1.5" stroke-miterlimit="10" stroke-linecap="round"/>
<path d="M348.373 128.689C349.875 128.689 351.093 127.471 351.093 125.968C351.093 124.466 349.875 123.248 348.373 123.248C346.87 123.248 345.652 124.466 345.652 125.968C345.652 127.471 346.87 128.689 348.373 128.689Z" stroke="#AEC0B1" stroke-width="1.5" stroke-miterlimit="10" stroke-linecap="round"/>
<path d="M425.673 88.7628C427.176 88.7628 428.394 87.5449 428.394 86.0425C428.394 84.5402 427.176 83.3223 425.673 83.3223C424.171 83.3223 422.953 84.5402 422.953 86.0425C422.953 87.5449 424.171 88.7628 425.673 88.7628Z" stroke="#AEC0B1" stroke-width="1.5" stroke-miterlimit="10" stroke-linecap="round"/>
<path d="M421.253 170.108C422.756 170.108 423.974 168.891 423.974 167.388C423.974 165.886 422.756 164.668 421.253 164.668C419.751 164.668 418.533 165.886 418.533 167.388C418.533 168.891 419.751 170.108 421.253 170.108Z" stroke="#AEC0B1" stroke-width="1.5" stroke-miterlimit="10" stroke-linecap="round"/>
<path d="M198.303 117.532L199.005 116.206L198.164 115.76L197.402 116.332L198.303 117.532ZM236.883 137.969L236.18 139.295L237.097 139.78L237.875 139.094L236.883 137.969ZM275.463 103.907L275.023 102.472L274.713 102.567L274.47 102.782L275.463 103.907ZM308.782 93.6877L309.498 92.37L308.944 92.0688L308.342 92.2536L308.782 93.6877ZM352.622 117.532L351.906 118.849L352.963 119.424L353.753 118.517L352.622 117.532ZM391.202 73.2501L391.756 71.8561L390.769 71.464L390.071 72.2648L391.202 73.2501ZM429.782 88.5783L429.228 89.9723L430.325 90.408L431.007 89.445L429.782 88.5783ZM468.362 34.0781L452.627 41.3174L466.764 51.3247L468.362 34.0781ZM160.623 147.685L199.203 118.731L197.402 116.332L158.822 145.285L160.623 147.685ZM197.6 118.857L236.18 139.295L237.585 136.644L199.005 116.206L197.6 118.857ZM237.875 139.094L276.455 105.031L274.47 102.782L235.89 136.845L237.875 139.094ZM275.902 105.341L309.221 95.1218L308.342 92.2536L275.023 102.472L275.902 105.341ZM308.065 95.0054L351.906 118.849L353.339 116.214L309.498 92.37L308.065 95.0054ZM353.753 118.517L392.333 74.2355L390.071 72.2648L351.491 116.546L353.753 118.517ZM390.649 74.6441L429.228 89.9723L430.336 87.1843L391.756 71.8561L390.649 74.6441ZM431.007 89.445L461.787 45.9634L459.338 44.2301L428.558 87.7117L431.007 89.445Z" fill="#6CBD7A"/>
<path d="M90.2338 177.41L90.7594 176.006L90.1275 175.769L89.5314 176.085L90.2338 177.41ZM144.868 197.848L144.342 199.253L145.035 199.512L145.662 199.121L144.868 197.848ZM199.502 163.785L199.185 162.319L198.93 162.375L198.709 162.513L199.502 163.785ZM246.686 153.567L247.224 152.166L246.806 152.006L246.369 152.101L246.686 153.567ZM308.771 177.41L308.233 178.811L309.042 179.121L309.715 178.576L308.771 177.41ZM363.405 133.129L363.81 131.685L363.063 131.475L362.46 131.964L363.405 133.129ZM418.039 148.457L417.634 149.901L418.478 150.138L419.098 149.519L418.039 148.457ZM472.673 93.957L455.938 98.4194L468.17 110.682L472.673 93.957ZM36.302 207.689L90.9362 178.736L89.5314 176.085L34.8972 205.038L36.302 207.689ZM89.7083 178.815L144.342 199.253L145.394 196.443L90.7594 176.006L89.7083 178.815ZM145.662 199.121L200.296 165.058L198.709 162.513L144.074 196.575L145.662 199.121ZM199.82 165.251L247.004 155.033L246.369 152.101L199.185 162.319L199.82 165.251ZM246.149 154.967L308.233 178.811L309.308 176.01L247.224 152.166L246.149 154.967ZM309.715 178.576L364.349 134.294L362.46 131.964L307.826 176.245L309.715 178.576ZM363 134.573L417.634 149.901L418.444 147.013L363.81 131.685L363 134.573ZM419.098 149.519L464.175 104.553L462.056 102.429L416.98 147.395L419.098 149.519Z" fill="#6CBD7A"/>
<path d="M222.698 86.6185L222.137 86.3286C227.034 76.7669 233.611 68.1637 241.553 60.9297L241.982 61.3962C234.094 68.5798 227.562 77.1232 222.698 86.6185Z" fill="#A0ECAD"/>
<path d="M214.804 109.123L214.174 108.997C215.086 104.539 216.338 100.158 217.918 95.8906L218.511 96.1113C216.943 100.347 215.704 104.697 214.804 109.123Z" fill="#A0ECAD"/>
<path opacity="0.9" d="M351.974 177.233C379.815 149.392 379.815 104.252 351.974 76.4111C324.132 48.5698 278.993 48.5698 251.151 76.4111C223.31 104.252 223.31 149.392 251.151 177.233C278.993 205.075 324.132 205.075 351.974 177.233Z" fill="#FAFAFA"/>
<g opacity="0.4">
<path opacity="0.4" d="M251.114 166.698H234.352L237.592 158.742H247.874L251.114 166.698Z" fill="#407BFF"/>
<path opacity="0.2" d="M251.114 166.698H234.352L237.592 158.742H247.874L251.114 166.698Z" fill="#FAFAFA"/>
<path opacity="0.4" d="M276.59 166.698H251.115L247.875 158.742H273.35L276.59 166.698Z" fill="#407BFF"/>
<path opacity="0.3" d="M276.59 166.698H251.115L247.875 158.742H273.35L276.59 166.698Z" fill="black"/>
<path opacity="0.4" d="M272.511 166.698H255.742L258.982 158.742H269.271L272.511 166.698Z" fill="#407BFF"/>
<path opacity="0.2" d="M272.511 166.698H255.742L258.982 158.742H269.271L272.511 166.698Z" fill="#FAFAFA"/>
<path opacity="0.4" d="M297.98 166.698H272.512L269.271 158.742H294.74L297.98 166.698Z" fill="#407BFF"/>
<path opacity="0.3" d="M297.98 166.698H272.512L269.271 158.742H294.74L297.98 166.698Z" fill="black"/>
<path opacity="0.4" d="M293.901 166.698H277.139L280.379 158.742H290.661L293.901 166.698Z" fill="#407BFF"/>
<path opacity="0.2" d="M293.901 166.698H277.139L280.379 158.742H290.661L293.901 166.698Z" fill="#FAFAFA"/>
<path opacity="0.4" d="M319.369 166.698H293.9L290.66 158.742H316.135L319.369 166.698Z" fill="#407BFF"/>
<path opacity="0.3" d="M319.369 166.698H293.9L290.66 158.742H316.135L319.369 166.698Z" fill="black"/>
<path opacity="0.4" d="M315.29 166.698H298.527L301.768 158.742H312.049L315.29 166.698Z" fill="#407BFF"/>
<path opacity="0.2" d="M315.29 166.698H298.527L301.768 158.742H312.049L315.29 166.698Z" fill="#FAFAFA"/>
<path opacity="0.4" d="M340.764 166.698H315.289L312.049 158.742H337.523L340.764 166.698Z" fill="#407BFF"/>
<path opacity="0.3" d="M340.764 166.698H315.289L312.049 158.742H337.523L340.764 166.698Z" fill="black"/>
<path opacity="0.4" d="M336.685 166.698H319.916L323.156 158.742H333.444L336.685 166.698Z" fill="#407BFF"/>
<path opacity="0.2" d="M336.685 166.698H319.916L323.156 158.742H333.444L336.685 166.698Z" fill="#FAFAFA"/>
<path opacity="0.4" d="M350.277 166.698C351.088 164.063 351.824 161.411 352.483 158.742H333.445L336.686 166.698H350.277Z" fill="#407BFF"/>
<path opacity="0.3" d="M350.277 166.698C351.088 164.063 351.824 161.411 352.483 158.742H333.445L336.686 166.698H350.277Z" fill="black"/>
<path opacity="0.4" d="M352.483 158.742H344.553L341.312 166.698H350.277C351.092 164.063 351.828 161.411 352.483 158.742Z" fill="#407BFF"/>
<path opacity="0.2" d="M352.483 158.742H344.553L341.312 166.698H350.277C351.092 164.063 351.828 161.411 352.483 158.742Z" fill="#FAFAFA"/>
<path opacity="0.4" d="M257.651 158.741H240.883L244.123 150.779H254.411L257.651 158.741Z" fill="#407BFF"/>
<path opacity="0.2" d="M257.651 158.741H240.883L244.123 150.779H254.411L257.651 158.741Z" fill="#FAFAFA"/>
<path opacity="0.4" d="M283.121 158.741H257.652L254.412 150.779H279.88L283.121 158.741Z" fill="#407BFF"/>
<path opacity="0.3" d="M283.121 158.741H257.652L254.412 150.779H279.88L283.121 158.741Z" fill="black"/>
<path opacity="0.4" d="M279.042 158.741H262.279L265.52 150.779H275.801L279.042 158.741Z" fill="#407BFF"/>
<path opacity="0.2" d="M279.042 158.741H262.279L265.52 150.779H275.801L279.042 158.741Z" fill="#FAFAFA"/>
<path opacity="0.4" d="M304.509 158.741H279.041L275.801 150.779H301.275L304.509 158.741Z" fill="#407BFF"/>
<path opacity="0.3" d="M304.509 158.741H279.041L275.801 150.779H301.275L304.509 158.741Z" fill="black"/>
<path opacity="0.4" d="M300.43 158.741H283.668L286.908 150.779H297.19L300.43 158.741Z" fill="#407BFF"/>
<path opacity="0.2" d="M300.43 158.741H283.668L286.908 150.779H297.19L300.43 158.741Z" fill="#FAFAFA"/>
<path opacity="0.4" d="M325.904 158.741H300.43L297.189 150.779H322.664L325.904 158.741Z" fill="#407BFF"/>
<path opacity="0.3" d="M325.904 158.741H300.43L297.189 150.779H322.664L325.904 158.741Z" fill="black"/>
<path opacity="0.4" d="M321.825 158.741H305.057L308.297 150.779H318.585L321.825 158.741Z" fill="#407BFF"/>
<path opacity="0.2" d="M321.825 158.741H305.057L308.297 150.779H318.585L321.825 158.741Z" fill="#FAFAFA"/>
<path opacity="0.4" d="M347.294 158.741H321.826L318.586 150.779H344.054L347.294 158.741Z" fill="#407BFF"/>
<path opacity="0.3" d="M347.294 158.741H321.826L318.586 150.779H344.054L347.294 158.741Z" fill="black"/>
<path opacity="0.4" d="M343.215 158.741H326.453L329.693 150.779H339.975L343.215 158.741Z" fill="#407BFF"/>
<path opacity="0.2" d="M343.215 158.741H326.453L329.693 150.779H339.975L343.215 158.741Z" fill="#FAFAFA"/>
<path opacity="0.4" d="M352.483 158.741C353.114 156.1 353.713 153.452 354.204 150.779H340.008L343.248 158.741H352.483Z" fill="#407BFF"/>
<path opacity="0.3" d="M352.483 158.741C353.114 156.1 353.713 153.452 354.204 150.779H340.008L343.248 158.741H352.483Z" fill="black"/>
<path opacity="0.4" d="M354.203 150.779H351.082L347.842 158.741H352.482C353.131 156.1 353.711 153.452 354.203 150.779Z" fill="#407BFF"/>
<path opacity="0.2" d="M354.203 150.779H351.082L347.842 158.741H352.482C353.131 156.1 353.711 153.452 354.203 150.779Z" fill="#FAFAFA"/>
<path opacity="0.4" d="M263.251 150.78H246.488L249.729 142.824H260.01L263.251 150.78Z" fill="#407BFF"/>
<path opacity="0.2" d="M263.251 150.78H246.488L249.729 142.824H260.01L263.251 150.78Z" fill="#FAFAFA"/>
<path opacity="0.4" d="M288.725 150.78H263.25L260.01 142.824H285.484L288.725 150.78Z" fill="#407BFF"/>
<path opacity="0.3" d="M288.725 150.78H263.25L260.01 142.824H285.484L288.725 150.78Z" fill="black"/>
<path opacity="0.4" d="M284.646 150.78H267.877L271.117 142.824H281.399L284.646 150.78Z" fill="#407BFF"/>
<path opacity="0.2" d="M284.646 150.78H267.877L271.117 142.824H281.399L284.646 150.78Z" fill="#FAFAFA"/>
<path opacity="0.4" d="M310.113 150.78H284.645L281.398 142.824H306.873L310.113 150.78Z" fill="#407BFF"/>
<path opacity="0.3" d="M310.113 150.78H284.645L281.398 142.824H306.873L310.113 150.78Z" fill="black"/>
<path opacity="0.4" d="M306.036 150.78H289.273L292.514 142.824H302.796L306.036 150.78Z" fill="#407BFF"/>
<path opacity="0.2" d="M306.036 150.78H289.273L292.514 142.824H302.796L306.036 150.78Z" fill="#FAFAFA"/>
<path opacity="0.4" d="M331.503 150.78H306.035L302.795 142.824H328.263L331.503 150.78Z" fill="#407BFF"/>
<path opacity="0.3" d="M331.503 150.78H306.035L302.795 142.824H328.263L331.503 150.78Z" fill="black"/>
<path opacity="0.4" d="M327.424 150.78H310.662L313.902 142.824H324.184L327.424 150.78Z" fill="#407BFF"/>
<path opacity="0.2" d="M327.424 150.78H310.662L313.902 142.824H324.184L327.424 150.78Z" fill="#FAFAFA"/>
<path opacity="0.4" d="M352.898 150.78H327.424L324.184 142.824H349.658L352.898 150.78Z" fill="#407BFF"/>
<path opacity="0.3" d="M352.898 150.78H327.424L324.184 142.824H349.658L352.898 150.78Z" fill="black"/>
<path opacity="0.4" d="M348.819 150.78H332.051L335.291 142.824H345.579L348.819 150.78Z" fill="#407BFF"/>
<path opacity="0.2" d="M348.819 150.78H332.051L335.291 142.824H345.579L348.819 150.78Z" fill="#FAFAFA"/>
<path opacity="0.4" d="M354.204 150.78C354.696 148.145 355.116 145.493 355.465 142.824H345.58L348.833 150.78H354.204Z" fill="#407BFF"/>
<path opacity="0.3" d="M354.204 150.78C354.696 148.145 355.116 145.493 355.465 142.824H345.58L348.833 150.78H354.204Z" fill="black"/>
<path opacity="0.4" d="M354.765 147.539L353.447 150.779H354.204C354.405 149.703 354.592 148.623 354.765 147.539Z" fill="#407BFF"/>
<path opacity="0.2" d="M354.765 147.539L353.447 150.779H354.204C354.405 149.703 354.592 148.623 354.765 147.539Z" fill="#FAFAFA"/>
<path opacity="0.4" d="M269.78 142.825H253.018L256.258 134.869H266.546L269.78 142.825Z" fill="#407BFF"/>
<path opacity="0.2" d="M269.78 142.825H253.018L256.258 134.869H266.546L269.78 142.825Z" fill="#FAFAFA"/>
<path opacity="0.4" d="M295.255 142.825H269.781L266.547 134.869H292.015L295.255 142.825Z" fill="#407BFF"/>
<path opacity="0.3" d="M295.255 142.825H269.781L266.547 134.869H292.015L295.255 142.825Z" fill="black"/>
<path opacity="0.4" d="M291.176 142.825H274.414L277.654 134.869H287.936L291.176 142.825Z" fill="#407BFF"/>
<path opacity="0.2" d="M291.176 142.825H274.414L277.654 134.869H287.936L291.176 142.825Z" fill="#FAFAFA"/>
<path opacity="0.4" d="M316.644 142.825H291.176L287.936 134.869H313.41L316.644 142.825Z" fill="#407BFF"/>
<path opacity="0.3" d="M316.644 142.825H291.176L287.936 134.869H313.41L316.644 142.825Z" fill="black"/>
<path opacity="0.4" d="M312.565 142.825H295.803L299.043 134.869H309.325L312.565 142.825Z" fill="#407BFF"/>
<path opacity="0.2" d="M312.565 142.825H295.803L299.043 134.869H309.325L312.565 142.825Z" fill="#FAFAFA"/>
<path opacity="0.4" d="M338.039 142.825H312.564L309.324 134.869H334.799L338.039 142.825Z" fill="#407BFF"/>
<path opacity="0.3" d="M338.039 142.825H312.564L309.324 134.869H334.799L338.039 142.825Z" fill="black"/>
<path opacity="0.4" d="M333.96 142.825H317.191L320.432 134.869H330.72L333.96 142.825Z" fill="#407BFF"/>
<path opacity="0.2" d="M333.96 142.825H317.191L320.432 134.869H330.72L333.96 142.825Z" fill="#FAFAFA"/>
<path opacity="0.4" d="M355.439 142.825C355.767 140.181 356.008 137.529 356.164 134.869H330.721L333.961 142.825H355.439Z" fill="#407BFF"/>
<path opacity="0.3" d="M355.439 142.825C355.767 140.181 356.008 137.529 356.164 134.869H330.721L333.961 142.825H355.439Z" fill="black"/>
<path opacity="0.4" d="M355.35 142.825H338.588L341.828 134.869H352.11L355.35 142.825Z" fill="#407BFF"/>
<path opacity="0.2" d="M355.35 142.825H338.588L341.828 134.869H352.11L355.35 142.825Z" fill="#FAFAFA"/>
<path opacity="0.4" d="M355.44 142.825C355.768 140.181 356.009 137.529 356.165 134.869H352.111L355.352 142.825H355.44Z" fill="#407BFF"/>
<path opacity="0.3" d="M355.44 142.825C355.768 140.181 356.009 137.529 356.165 134.869H352.111L355.352 142.825H355.44Z" fill="black"/>
<path opacity="0.4" d="M266.068 198.528H271.792L268.552 190.572H255.855C259.46 192.957 262.874 195.616 266.068 198.528Z" fill="#407BFF"/>
<path opacity="0.3" d="M266.068 198.528H271.792L268.552 190.572H255.855C259.46 192.957 262.874 195.616 266.068 198.528Z" fill="black"/>
<path opacity="0.4" d="M266.068 198.528H267.713L264.473 190.572H255.855C259.46 192.957 262.874 195.616 266.068 198.528Z" fill="#407BFF"/>
<path opacity="0.2" d="M266.068 198.528H267.713L264.473 190.572H255.855C259.46 192.957 262.874 195.616 266.068 198.528Z" fill="#FAFAFA"/>
<path opacity="0.4" d="M293.181 198.528H267.713L264.473 190.572H289.941L293.181 198.528Z" fill="#407BFF"/>
<path opacity="0.3" d="M293.181 198.528H267.713L264.473 190.572H289.941L293.181 198.528Z" fill="black"/>
<path opacity="0.4" d="M289.102 198.528H272.34L275.58 190.572H285.862L289.102 198.528Z" fill="#407BFF"/>
<path opacity="0.2" d="M289.102 198.528H272.34L275.58 190.572H285.862L289.102 198.528Z" fill="#FAFAFA"/>
<path opacity="0.4" d="M314.57 198.528H289.102L285.861 190.572H311.33L314.57 198.528Z" fill="#407BFF"/>
<path opacity="0.3" d="M314.57 198.528H289.102L285.861 190.572H311.33L314.57 198.528Z" fill="black"/>
<path opacity="0.4" d="M310.491 198.528H293.729L296.969 190.572H307.251L310.491 198.528Z" fill="#407BFF"/>
<path opacity="0.2" d="M310.491 198.528H293.729L296.969 190.572H307.251L310.491 198.528Z" fill="#FAFAFA"/>
<path opacity="0.4" d="M335.828 198.188L332.726 190.572H307.227L310.467 198.528H335.45C335.595 198.421 335.708 198.301 335.828 198.188Z" fill="#407BFF"/>
<path opacity="0.3" d="M335.828 198.188L332.726 190.572H307.227L310.467 198.528H335.45C335.595 198.421 335.708 198.301 335.828 198.188Z" fill="black"/>
<path opacity="0.4" d="M331.888 198.528H315.119L318.359 190.572H328.648L331.888 198.528Z" fill="#407BFF"/>
<path opacity="0.2" d="M331.888 198.528H315.119L318.359 190.572H328.648L331.888 198.528Z" fill="#FAFAFA"/>
<path opacity="0.4" d="M335.475 198.528C337.822 196.214 339.767 193.525 341.23 190.572H328.66L331.9 198.528H335.475Z" fill="#407BFF"/>
<path opacity="0.3" d="M335.475 198.528C337.822 196.214 339.767 193.525 341.23 190.572H328.66L331.9 198.528H335.475Z" fill="black"/>
<path opacity="0.4" d="M341.23 190.572H339.755L337.309 196.574C338.827 194.719 340.141 192.707 341.23 190.572Z" fill="#407BFF"/>
<path opacity="0.2" d="M341.23 190.572H339.755L337.309 196.574C338.827 194.719 340.141 192.707 341.23 190.572Z" fill="#FAFAFA"/>
<path opacity="0.4" d="M246.278 183.506C249.31 186.072 252.582 188.31 255.853 190.573H256.931L253.691 182.617H245.25C245.59 182.913 245.931 183.216 246.278 183.506Z" fill="#407BFF"/>
<path opacity="0.3" d="M246.278 183.506C249.31 186.072 252.582 188.31 255.853 190.573H256.931L253.691 182.617H245.25C245.59 182.913 245.931 183.216 246.278 183.506Z" fill="black"/>
<path opacity="0.4" d="M246.278 183.504C248.005 184.966 249.814 186.322 251.655 187.633L249.612 182.59H245.25C245.59 182.911 245.931 183.214 246.278 183.504Z" fill="#407BFF"/>
<path opacity="0.2" d="M246.278 183.504C248.005 184.966 249.814 186.322 251.655 187.633L249.612 182.59H245.25C245.59 182.911 245.931 183.214 246.278 183.504Z" fill="#FAFAFA"/>
<path opacity="0.4" d="M255.855 190.573H278.322L275.076 182.617H249.607L251.65 187.66C253.043 188.631 254.455 189.596 255.855 190.573Z" fill="#407BFF"/>
<path opacity="0.3" d="M255.855 190.573H278.322L275.076 182.617H249.607L251.65 187.66C253.043 188.631 254.455 189.596 255.855 190.573Z" fill="black"/>
<path opacity="0.4" d="M274.243 190.573H257.48L260.721 182.617H271.003L274.243 190.573Z" fill="#407BFF"/>
<path opacity="0.2" d="M274.243 190.573H257.48L260.721 182.617H271.003L274.243 190.573Z" fill="#FAFAFA"/>
<path opacity="0.4" d="M299.717 190.573H274.242L271.002 182.617H296.476L299.717 190.573Z" fill="#407BFF"/>
<path opacity="0.3" d="M299.717 190.573H274.242L271.002 182.617H296.476L299.717 190.573Z" fill="black"/>
<path opacity="0.4" d="M295.633 190.573H278.871L282.111 182.617H292.393L295.633 190.573Z" fill="#407BFF"/>
<path opacity="0.2" d="M295.633 190.573H278.871L282.111 182.617H292.393L295.633 190.573Z" fill="#FAFAFA"/>
<path opacity="0.4" d="M321.107 190.573H295.633L292.393 182.617H317.867L321.107 190.573Z" fill="#407BFF"/>
<path opacity="0.3" d="M321.107 190.573H295.633L292.393 182.617H317.867L321.107 190.573Z" fill="black"/>
<path opacity="0.4" d="M317.028 190.573H300.266L303.506 182.617H313.788L317.028 190.573Z" fill="#407BFF"/>
<path opacity="0.2" d="M317.028 190.573H300.266L303.506 182.617H313.788L317.028 190.573Z" fill="#FAFAFA"/>
<path opacity="0.4" d="M341.928 189.186L339.255 182.617H313.787L317.027 190.573H341.228C341.474 190.113 341.701 189.652 341.928 189.186Z" fill="#407BFF"/>
<path opacity="0.3" d="M341.928 189.186L339.255 182.617H313.787L317.027 190.573H341.228C341.474 190.113 341.701 189.652 341.928 189.186Z" fill="black"/>
<path opacity="0.4" d="M338.417 190.573H321.654L324.895 182.617H335.176L338.417 190.573Z" fill="#407BFF"/>
<path opacity="0.2" d="M338.417 190.573H321.654L324.895 182.617H335.176L338.417 190.573Z" fill="#FAFAFA"/>
<path opacity="0.4" d="M341.23 190.573C342.548 187.993 343.71 185.337 344.709 182.617H335.178L338.418 190.573H341.23Z" fill="#407BFF"/>
<path opacity="0.3" d="M341.23 190.573C342.548 187.993 343.71 185.337 344.709 182.617H335.178L338.418 190.573H341.23Z" fill="black"/>
<path opacity="0.4" d="M245.252 182.616H262.531L259.316 174.654H237.611C239.937 177.512 242.492 180.175 245.252 182.616Z" fill="#407BFF"/>
<path opacity="0.3" d="M245.252 182.616H262.531L259.316 174.654H237.611C239.937 177.512 242.492 180.175 245.252 182.616Z" fill="black"/>
<path opacity="0.4" d="M245.253 182.616H258.453L255.213 174.654H244.931L242.668 180.208C243.504 181.036 244.366 181.839 245.253 182.616Z" fill="#407BFF"/>
<path opacity="0.2" d="M245.253 182.616H258.453L255.213 174.654H244.931L242.668 180.208C243.504 181.036 244.366 181.839 245.253 182.616Z" fill="#FAFAFA"/>
<path opacity="0.4" d="M283.926 182.616H258.451L255.211 174.654H280.685L283.926 182.616Z" fill="#407BFF"/>
<path opacity="0.3" d="M283.926 182.616H258.451L255.211 174.654H280.685L283.926 182.616Z" fill="black"/>
<path opacity="0.4" d="M279.84 182.616H263.078L266.318 174.654H276.607L279.84 182.616Z" fill="#407BFF"/>
<path opacity="0.2" d="M279.84 182.616H263.078L266.318 174.654H276.607L279.84 182.616Z" fill="#FAFAFA"/>
<path opacity="0.4" d="M305.316 182.616H279.841L276.607 174.654H302.076L305.316 182.616Z" fill="#407BFF"/>
<path opacity="0.3" d="M305.316 182.616H279.841L276.607 174.654H302.076L305.316 182.616Z" fill="black"/>
<path opacity="0.4" d="M301.237 182.616H284.475L287.715 174.654H297.997L301.237 182.616Z" fill="#407BFF"/>
<path opacity="0.2" d="M301.237 182.616H284.475L287.715 174.654H297.997L301.237 182.616Z" fill="#FAFAFA"/>
<path opacity="0.4" d="M326.705 182.616H301.236L297.996 174.654H323.464L326.705 182.616Z" fill="#407BFF"/>
<path opacity="0.3" d="M326.705 182.616H301.236L297.996 174.654H323.464L326.705 182.616Z" fill="black"/>
<path opacity="0.4" d="M322.626 182.616H305.863L309.104 174.654H319.385L322.626 182.616Z" fill="#407BFF"/>
<path opacity="0.2" d="M322.626 182.616H305.863L309.104 174.654H319.385L322.626 182.616Z" fill="#FAFAFA"/>
<path opacity="0.4" d="M346.309 178.21L344.866 174.654H319.385L322.625 182.616H344.689C345.275 181.116 345.799 179.634 346.309 178.21Z" fill="#407BFF"/>
<path opacity="0.3" d="M346.309 178.21L344.866 174.654H319.385L322.625 182.616H344.689C345.275 181.116 345.799 179.634 346.309 178.21Z" fill="black"/>
<path opacity="0.4" d="M344.021 182.616H327.252L330.492 174.654H340.78L344.021 182.616Z" fill="#407BFF"/>
<path opacity="0.2" d="M344.021 182.616H327.252L330.492 174.654H340.78L344.021 182.616Z" fill="#FAFAFA"/>
<path opacity="0.4" d="M344.711 182.616C345.751 179.861 346.659 177.17 347.541 174.787C347.553 174.742 347.568 174.697 347.585 174.654H340.783L344.023 182.616H344.711Z" fill="#407BFF"/>
<path opacity="0.3" d="M344.711 182.616C345.751 179.861 346.659 177.17 347.541 174.787C347.553 174.742 347.568 174.697 347.585 174.654H340.783L344.023 182.616H344.711Z" fill="black"/>
<path opacity="0.4" d="M237.611 174.655H243.594L240.353 166.699H231.994C233.68 169.478 235.557 172.136 237.611 174.655Z" fill="#407BFF"/>
<path opacity="0.2" d="M237.611 174.655H243.594L240.353 166.699H231.994C233.68 169.478 235.557 172.136 237.611 174.655Z" fill="#FAFAFA"/>
<path opacity="0.4" d="M269.068 174.655H243.594L240.354 166.699H265.828L269.068 174.655Z" fill="#407BFF"/>
<path opacity="0.3" d="M269.068 174.655H243.594L240.354 166.699H265.828L269.068 174.655Z" fill="black"/>
<path opacity="0.4" d="M264.989 174.655H248.221L251.461 166.699H261.749L264.989 174.655Z" fill="#407BFF"/>
<path opacity="0.2" d="M264.989 174.655H248.221L251.461 166.699H261.749L264.989 174.655Z" fill="#FAFAFA"/>
<path opacity="0.4" d="M290.457 174.655H264.988L261.748 166.699H287.216L290.457 174.655Z" fill="#407BFF"/>
<path opacity="0.3" d="M290.457 174.655H264.988L261.748 166.699H287.216L290.457 174.655Z" fill="black"/>
<path opacity="0.4" d="M286.378 174.655H269.615L272.855 166.699H283.137L286.378 174.655Z" fill="#407BFF"/>
<path opacity="0.2" d="M286.378 174.655H269.615L272.855 166.699H283.137L286.378 174.655Z" fill="#FAFAFA"/>
<path opacity="0.4" d="M311.845 174.655H286.377L283.137 166.699H308.605L311.845 174.655Z" fill="#407BFF"/>
<path opacity="0.3" d="M311.845 174.655H286.377L283.137 166.699H308.605L311.845 174.655Z" fill="black"/>
<path opacity="0.4" d="M307.768 174.655H291.006L294.246 166.699H304.528L307.768 174.655Z" fill="#407BFF"/>
<path opacity="0.2" d="M307.768 174.655H291.006L294.246 166.699H304.528L307.768 174.655Z" fill="#FAFAFA"/>
<path opacity="0.4" d="M333.242 174.655H307.768L304.527 166.699H330.002L333.242 174.655Z" fill="#407BFF"/>
<path opacity="0.3" d="M333.242 174.655H307.768L304.527 166.699H330.002L333.242 174.655Z" fill="black"/>
<path opacity="0.4" d="M329.165 174.655H312.396L315.637 166.699H325.925L329.165 174.655Z" fill="#407BFF"/>
<path opacity="0.2" d="M329.165 174.655H312.396L315.637 166.699H325.925L329.165 174.655Z" fill="#FAFAFA"/>
<path opacity="0.4" d="M347.572 174.655C348.543 172.024 349.44 169.372 350.264 166.699H325.924L329.164 174.655H347.572Z" fill="#407BFF"/>
<path opacity="0.3" d="M347.572 174.655C348.543 172.024 349.44 169.372 350.264 166.699H325.924L329.164 174.655H347.572Z" fill="black"/>
<path opacity="0.4" d="M348.958 170.746L347.313 166.699H337.031L333.791 174.655H347.572C348.063 173.363 348.517 172.058 348.958 170.746Z" fill="#407BFF"/>
<path opacity="0.2" d="M348.958 170.746L347.313 166.699H337.031L333.791 174.655H347.572C348.063 173.363 348.517 172.058 348.958 170.746Z" fill="#FAFAFA"/>
<path opacity="0.4" d="M350.275 166.699H347.312L348.958 170.746C349.42 169.406 349.859 168.057 350.275 166.699Z" fill="#407BFF"/>
<path opacity="0.3" d="M350.275 166.699H347.312L348.958 170.746C349.42 169.406 349.859 168.057 350.275 166.699Z" fill="black"/>
</g>
<path d="M301.667 39.8164C284.445 39.8164 267.609 44.9234 253.29 54.4916C238.97 64.0598 227.809 77.6594 221.218 93.5707C214.628 109.482 212.903 126.99 216.263 143.882C219.623 160.773 227.916 176.289 240.094 188.467C252.272 200.645 267.788 208.938 284.679 212.298C301.571 215.658 319.079 213.933 334.99 207.343C350.902 200.752 364.501 189.591 374.069 175.271C383.638 160.952 388.745 144.116 388.745 126.894C388.745 103.799 379.57 81.6509 363.24 65.3208C346.91 48.9906 324.762 39.8164 301.667 39.8164ZM301.554 198.117C287.454 198.115 273.671 193.933 261.948 186.099C250.225 178.264 241.088 167.129 235.693 154.102C230.298 141.075 228.887 126.741 231.639 112.912C234.39 99.0833 241.181 86.3808 251.151 76.4111C261.122 66.4413 273.825 59.652 287.654 56.9017C301.483 54.1514 315.817 55.5636 328.844 60.9597C341.87 66.3558 353.004 75.4935 360.838 87.2173C368.671 98.9411 372.852 112.724 372.852 126.824C372.852 136.187 371.008 145.458 367.425 154.108C363.842 162.758 358.59 170.618 351.969 177.238C345.348 183.858 337.488 189.109 328.838 192.692C320.188 196.274 310.917 198.117 301.554 198.117Z" fill="#69D27B"/>
<path d="M301.667 209.489C347.207 209.489 384.249 172.434 384.249 126.907C384.249 81.3792 347.194 44.3242 301.667 44.3242C256.139 44.3242 219.084 81.3729 219.084 126.907C219.084 172.441 256.12 209.489 301.667 209.489ZM301.667 44.9546C323.393 44.983 344.221 53.6263 359.584 68.9892C374.947 84.3521 383.59 105.18 383.619 126.907C383.619 172.1 346.847 208.859 301.667 208.859C256.486 208.859 219.714 172.088 219.714 126.907C219.714 81.7259 256.467 44.9294 301.667 44.9294V44.9546Z" fill="#67AD74"/>
<path d="M280.886 66.1616C284.454 67.0268 288.111 67.892 291.723 68.6797C295.335 69.4675 298.966 70.1842 302.522 70.6749L303.839 70.8299L304.161 70.8622H304.11C304.11 70.8622 304.142 70.8622 304.211 70.8622C304.78 70.7139 305.319 70.4671 305.806 70.1325C307.221 69.18 308.551 68.0995 309.778 66.9041C312.4 64.4182 314.96 61.6031 317.424 58.8008L320.305 60.8476C318.418 64.3518 316.213 67.6659 313.718 70.7459C312.4 72.4006 310.909 73.9031 309.273 75.227C308.255 76.065 307.094 76.7041 305.85 77.1124C305.439 77.2402 305.017 77.3267 304.589 77.3707C304.338 77.3871 304.085 77.3871 303.833 77.3707H303.448L301.948 77.2932C298.069 76.9988 294.209 76.4793 290.387 75.7371C286.604 75.0268 282.897 74.1874 279.146 73.1543L280.886 66.1616Z" fill="#F9D1AA"/>
<path d="M275.478 72.7207C277.999 76.4527 293.129 77.8861 293.129 77.8861L294.056 67.9555C290.203 66.5732 286.239 65.5405 282.21 64.8691C271.525 63.3066 272.729 68.627 275.478 72.7207Z" fill="#252525"/>
<path d="M275.478 72.7207C277.999 76.4527 293.129 77.8861 293.129 77.8861L294.056 67.9555C290.203 66.5732 286.239 65.5405 282.21 64.8691C271.525 63.3066 272.729 68.627 275.478 72.7207Z" fill="#3178AD"/>
<path d="M316.832 60.0402L318.036 55.4688L322.19 57.296C322.19 57.296 320.438 62.2226 318.856 61.9772L316.832 60.0402Z" fill="#F9D1AA"/>
<path d="M321.465 52.6414L324.9 52.4219L322.19 57.2968L318.035 55.4695L321.465 52.6414Z" fill="#F9D1AA"/>
<path d="M285.638 65.9735C285.638 65.9735 291.64 80.4303 287.315 107.349H262.314C262.011 103.417 263.77 84.2463 259.445 65.7281C262.195 65.1797 264.977 64.8174 267.773 64.6434C271.313 64.4366 274.862 64.4366 278.401 64.6434C280.843 64.8973 283.263 65.342 285.638 65.9735Z" fill="#252525"/>
<path d="M285.638 65.9735C285.638 65.9735 291.64 80.4303 287.315 107.349H262.314C262.011 103.417 263.77 84.2463 259.445 65.7281C262.195 65.1797 264.977 64.8174 267.773 64.6434C271.313 64.4366 274.862 64.4366 278.401 64.6434C280.843 64.8973 283.263 65.342 285.638 65.9735Z" fill="#3178AD"/>
<path opacity="0.3" d="M260.229 69.4355C261.398 75.7726 262.089 82.1924 262.296 88.6382C263.212 84.8617 263.832 81.0162 264.15 77.1386C264.414 72.8448 262.788 70.1264 260.229 69.4355Z" fill="black"/>
<path d="M268.418 52.3867C269.206 55.8928 270.088 62.3044 267.787 64.6547C267.787 64.6547 268.789 67.5538 275.144 67.5538C282.129 67.5538 278.416 64.6547 278.416 64.6547C274.57 63.7249 274.57 60.8258 275.144 58.1075L268.418 52.3867Z" fill="#F9D1AA"/>
<path opacity="0.2" d="M271.154 54.7207L275.131 58.0912C274.988 58.7277 274.9 59.3759 274.867 60.0282C273.404 59.8152 271.349 58.1751 271.141 56.6126C271.03 55.9867 271.034 55.345 271.154 54.7207Z" fill="black"/>
<path d="M278.693 50.3871C279.727 49.4831 280.194 44.0788 278.157 41.4896C276.121 38.9004 274.375 45.1764 274.375 45.1764C274.375 45.1764 275.308 53.3572 278.693 50.3871Z" fill="#263238"/>
<path d="M266.905 48.727C268.33 53.2468 268.935 55.9781 271.81 57.8312C272.737 58.4417 273.81 58.7808 274.912 58.812C276.014 58.8431 277.103 58.565 278.062 58.0079C279.02 57.4507 279.812 56.6356 280.351 55.6508C280.891 54.6659 281.157 53.5489 281.121 52.4204C281.064 48.0749 278.744 41.3856 273.858 40.5527C272.806 40.343 271.718 40.4205 270.704 40.7775C269.69 41.1344 268.785 41.7583 268.081 42.5864C267.376 43.4145 266.897 44.4178 266.69 45.4956C266.484 46.5734 266.558 47.6878 266.905 48.727Z" fill="#F9D1AA"/>
<path d="M278.806 39.391C278.953 39.1164 279.025 38.8063 279.014 38.4935C279.012 38.1173 278.892 37.7517 278.673 37.4495C278.455 37.1473 278.148 36.9241 277.797 36.812C277.446 36.6999 277.07 36.7049 276.722 36.826C276.375 36.9472 276.073 37.1784 275.862 37.4862C275.505 37.0668 275.061 36.7335 274.563 36.5102C274.065 36.287 273.525 36.1793 272.981 36.1948C272.41 36.2145 271.85 36.3715 271.349 36.6533C271.024 36.3704 270.608 36.2229 270.182 36.24C269.769 36.2553 269.374 36.4209 269.069 36.7073C268.764 36.9937 268.569 37.382 268.518 37.8026C268.341 37.7734 268.162 37.7604 267.982 37.7638C267.24 37.7908 266.539 38.1179 266.032 38.6734C265.525 39.2289 265.254 39.9676 265.278 40.7275C265.278 40.7275 265.278 40.7275 265.278 40.7663C265.171 40.7596 265.063 40.7596 264.956 40.7663C264.657 40.7771 264.364 40.8482 264.091 40.9754C263.819 41.1027 263.574 41.2836 263.371 41.5079C263.167 41.7322 263.008 41.9954 262.904 42.2825C262.8 42.5696 262.752 42.875 262.763 43.1811V43.2199C262.478 43.3782 262.242 43.6153 262.083 43.9042C261.924 44.193 261.847 44.522 261.861 44.8535C261.874 45.2062 261.988 45.5472 262.189 45.8341C262.389 46.1211 262.668 46.3414 262.99 46.4677C263.033 47.0146 263.264 47.528 263.643 47.916C264.022 48.304 264.523 48.5413 265.057 48.5855C265.303 50.8454 266.097 54.345 268.676 52.5371C269.659 51.8462 270.567 47.6557 269.59 44.7502C269.665 44.7502 269.747 44.7502 269.829 44.7502C270.255 44.734 270.671 44.6179 271.046 44.4108C271.421 44.2037 271.745 43.9111 271.992 43.5556C272.531 43.7373 273.104 43.7893 273.666 43.7075C274.227 43.6258 274.763 43.4125 275.232 43.0843C275.434 43.1567 275.648 43.1917 275.862 43.1876C276.156 43.1739 276.442 43.0851 276.694 42.9293C277.053 43.1788 277.478 43.3074 277.911 43.2974C278.361 43.2832 278.794 43.117 279.143 42.8246C279.491 42.5322 279.735 42.13 279.838 41.6806C279.94 41.2313 279.894 40.76 279.707 40.34C279.521 39.9201 279.204 39.5751 278.806 39.3587V39.391Z" fill="#263238"/>
<path d="M266.14 54.2426C266.985 55.0841 268.113 55.5624 269.292 55.5791C270.849 55.5791 271.183 54.0682 270.345 52.8027C269.601 51.6727 267.899 50.3039 266.524 50.9108C265.15 51.5178 265.106 53.203 266.14 54.2426Z" fill="#F9D1AA"/>
<path d="M274.104 48.4678C274.192 48.8423 274.463 49.1135 274.735 49.0489C275.006 48.9844 275.094 48.6421 274.999 48.2676C274.905 47.8931 274.634 47.622 274.369 47.693C274.104 47.764 274.01 48.0804 274.104 48.4678Z" fill="#263238"/>
<path d="M278.251 47.5343C278.346 47.9088 278.617 48.18 278.882 48.1155C279.146 48.0509 279.241 47.7151 279.146 47.3407C279.052 46.9662 278.781 46.695 278.516 46.7595C278.251 46.8241 278.169 47.1599 278.251 47.5343Z" fill="#263238"/>
<path d="M276.99 48.0176C277.72 49.0646 278.58 50.0089 279.55 50.8263C279.339 51.0659 279.08 51.2554 278.79 51.3815C278.5 51.5075 278.187 51.5671 277.873 51.5559L276.99 48.0176Z" fill="#C7A788"/>
<path d="M276.279 52.9183C275.511 52.9261 274.766 52.6511 274.18 52.1435C274.16 52.1229 274.148 52.095 274.148 52.066C274.148 52.0369 274.16 52.0091 274.18 51.9885C274.19 51.9773 274.202 51.9684 274.215 51.9624C274.229 51.9563 274.244 51.9531 274.258 51.9531C274.273 51.9531 274.288 51.9563 274.302 51.9624C274.315 51.9684 274.327 51.9773 274.337 51.9885C274.706 52.2957 275.139 52.5133 275.601 52.6252C276.064 52.737 276.546 52.7401 277.01 52.6342C277.039 52.6282 277.068 52.6336 277.093 52.6492C277.117 52.6648 277.135 52.6895 277.143 52.7181C277.146 52.733 277.147 52.7485 277.144 52.7637C277.142 52.7788 277.136 52.7932 277.128 52.806C277.12 52.8188 277.109 52.8296 277.096 52.8378C277.083 52.8461 277.069 52.8515 277.054 52.8537C276.799 52.9056 276.539 52.9273 276.279 52.9183Z" fill="#263238"/>
<path d="M272.453 47.3903C272.424 47.3964 272.393 47.3964 272.364 47.3903C272.337 47.3791 272.313 47.3624 272.292 47.3412C272.272 47.3199 272.256 47.2946 272.245 47.2668C272.235 47.239 272.23 47.2093 272.231 47.1795C272.232 47.1496 272.238 47.1203 272.251 47.0933C272.385 46.7662 272.596 46.4776 272.864 46.2525C273.132 46.0275 273.449 45.8728 273.789 45.8019C273.847 45.7961 273.905 45.8127 273.952 45.8486C273.999 45.8844 274.03 45.9369 274.041 45.9956C274.049 46.0554 274.033 46.1157 273.998 46.1639C273.962 46.2121 273.91 46.2443 273.852 46.2539C273.585 46.3155 273.337 46.4422 273.129 46.6232C272.92 46.8042 272.757 47.0341 272.654 47.2935C272.632 47.3265 272.602 47.3529 272.566 47.3699C272.531 47.3869 272.492 47.394 272.453 47.3903Z" fill="#263238"/>
<path d="M279.671 45.6795C279.638 45.6798 279.606 45.6723 279.576 45.6578C279.547 45.6432 279.521 45.6219 279.501 45.5956C279.323 45.3696 279.099 45.1874 278.843 45.0622C278.588 44.9371 278.309 44.8722 278.026 44.8724C277.967 44.8775 277.909 44.8586 277.864 44.8199C277.819 44.7811 277.791 44.7257 277.786 44.6658C277.781 44.6058 277.799 44.5463 277.837 44.5003C277.875 44.4543 277.929 44.4255 277.988 44.4204C278.342 44.413 278.693 44.4889 279.015 44.6423C279.336 44.7956 279.619 45.0223 279.841 45.305C279.878 45.3524 279.895 45.4127 279.889 45.473C279.884 45.5333 279.855 45.5889 279.81 45.6278C279.77 45.6609 279.722 45.6791 279.671 45.6795Z" fill="#263238"/>
<path d="M264.384 72.6164L263.476 74.6245C263.173 75.3154 262.877 76.0127 262.587 76.7101C262.007 78.1048 261.458 79.5188 260.929 80.9264C260.399 82.334 259.933 83.7545 259.485 85.175C259.038 86.5955 258.691 88.0096 258.401 89.4172V89.5398V89.5011C258.404 89.4667 258.404 89.4322 258.401 89.3978C258.393 89.3263 258.374 89.2566 258.344 89.1912C258.294 89.0685 258.237 89.0427 258.262 89.1137C258.492 89.444 258.789 89.7194 259.132 89.9208C260.264 90.6275 261.469 91.2014 262.726 91.6318C265.539 92.6217 268.406 93.4453 271.312 94.0984L271.022 97.6819C267.77 97.789 264.516 97.5291 261.32 96.9071C259.564 96.5817 257.858 96.0216 256.245 95.2412C255.198 94.7305 254.256 94.0181 253.471 93.1427C252.936 92.5174 252.532 91.7854 252.286 90.9926C252.152 90.5436 252.072 90.0796 252.047 89.6109C252.034 89.3786 252.034 89.1458 252.047 88.9135L252.078 88.5778V88.4034C252.498 85.0417 253.247 81.7319 254.316 78.5245C254.829 76.949 255.394 75.3972 256.012 73.8691C256.327 73.1072 256.642 72.3517 256.989 71.5963C257.336 70.8408 257.67 70.1177 258.08 69.3105L264.384 72.6164Z" fill="#F9D1AA"/>
<path d="M259.446 65.7272C255.034 66.3729 250.514 82.9734 250.514 82.9734L261.149 87.1187C261.149 87.1187 263.821 79.9839 265.65 74.444C267.566 68.6393 264.162 65.017 259.446 65.7272Z" fill="#252525"/>
<path d="M259.446 65.7272C255.034 66.3729 250.514 82.9734 250.514 82.9734L261.149 87.1187C261.149 87.1187 263.821 79.9839 265.65 74.444C267.566 68.6393 264.162 65.017 259.446 65.7272Z" fill="#3178AD"/>
<path d="M266.154 229.114H270.832L271.437 218.027H266.766L266.154 229.114Z" fill="#F9D1AA"/>
<path opacity="0.2" d="M266.759 218.027H271.436L271.121 223.742H266.443L266.759 218.027Z" fill="black"/>
<path d="M271.077 228.557H265.826C265.782 228.555 265.739 228.561 265.698 228.576C265.656 228.591 265.619 228.614 265.586 228.644C265.554 228.674 265.528 228.71 265.509 228.751C265.491 228.791 265.481 228.835 265.479 228.88L265.221 233.135C265.22 233.246 265.24 233.356 265.281 233.459C265.322 233.562 265.382 233.656 265.458 233.735C265.534 233.814 265.625 233.877 265.725 233.921C265.825 233.964 265.932 233.987 266.04 233.987C267.868 233.955 268.745 233.845 271.083 233.845C272.502 233.845 278.541 234 280.502 234C282.462 234 282.393 232.012 281.58 231.831C277.848 231.024 273.233 229.894 271.909 228.848C271.672 228.658 271.379 228.555 271.077 228.557Z" fill="#263238"/>
<path d="M272.729 229.385C273.042 229.416 273.354 229.326 273.606 229.133C273.679 229.055 273.729 228.958 273.753 228.852C273.776 228.746 273.771 228.636 273.738 228.533C273.726 228.464 273.698 228.399 273.655 228.345C273.612 228.291 273.556 228.249 273.492 228.223C272.918 227.99 271.601 228.914 271.45 229.024C271.433 229.036 271.421 229.053 271.413 229.072C271.405 229.092 271.403 229.113 271.405 229.133C271.411 229.153 271.422 229.171 271.436 229.186C271.45 229.201 271.468 229.212 271.487 229.217C271.895 229.318 272.311 229.374 272.729 229.385ZM273.271 228.397C273.319 228.388 273.369 228.388 273.416 228.397C273.447 228.411 273.475 228.432 273.496 228.459C273.517 228.486 273.531 228.518 273.536 228.552C273.558 228.621 273.563 228.694 273.55 228.766C273.537 228.837 273.506 228.903 273.461 228.959C273.24 229.179 272.616 229.204 271.777 229.036C272.225 228.715 272.734 228.497 273.271 228.397Z" fill="#252525"/>
<path d="M271.513 229.216H271.564C272.03 228.932 272.724 227.925 272.616 227.415C272.597 227.322 272.548 227.239 272.477 227.178C272.406 227.118 272.318 227.083 272.226 227.079C272.142 227.068 272.058 227.076 271.978 227.103C271.899 227.13 271.826 227.175 271.765 227.234C271.299 227.699 271.4 229.074 271.406 229.132C271.408 229.15 271.414 229.167 271.424 229.182C271.433 229.197 271.447 229.208 271.463 229.216C271.479 229.223 271.497 229.223 271.513 229.216ZM272.144 227.279H272.194C272.358 227.279 272.389 227.382 272.408 227.447C272.484 227.809 271.986 228.57 271.601 228.906C271.537 228.376 271.644 227.839 271.904 227.376C271.937 227.344 271.975 227.319 272.017 227.302C272.06 227.286 272.105 227.278 272.15 227.279H272.144Z" fill="#252525"/>
<path d="M307.684 217.284L312.286 216.464L311.032 205.436L306.43 206.256L307.684 217.284Z" fill="#F9D1AA"/>
<path opacity="0.2" d="M306.43 206.261L311.038 205.441L311.681 211.123L307.073 211.943L306.43 206.261Z" fill="black"/>
<path d="M312.293 215.89L307.105 215.076C307.018 215.059 306.928 215.078 306.855 215.129C306.782 215.18 306.731 215.259 306.714 215.348L305.832 219.512C305.799 219.734 305.853 219.96 305.981 220.141C306.11 220.322 306.303 220.444 306.519 220.481C308.328 220.733 309.211 220.758 311.493 221.126C312.898 221.346 318.843 222.418 320.785 222.728C322.726 223.038 322.96 221.062 322.165 220.752C318.597 219.383 314.197 217.569 313.043 216.316C312.85 216.089 312.584 215.938 312.293 215.89Z" fill="#263238"/>
<path d="M287.317 107.348C287.317 107.348 301.816 142.066 304.747 155.458C307.969 170.121 313.428 209.411 313.428 209.411L304.993 210.915C304.993 210.915 297.227 174.215 292.751 160.068C287.891 144.72 268.48 107.348 268.48 107.348H287.317Z" fill="#F4AE3D"/>
<path opacity="0.3" d="M275.364 115.02L275.023 120.269C277.211 124.685 279.733 129.838 282.197 135.068C283.294 129.89 280.495 117.447 275.364 115.02Z" fill="black"/>
<path d="M278.952 107.348C278.952 107.348 278.87 143.926 278.114 157.634C277.282 172.64 273.127 222.364 273.127 222.364H264.566C264.566 222.364 264.825 173.854 264.308 158.997C263.747 142.854 262.297 107.342 262.297 107.342L278.952 107.348Z" fill="#F4AE3D"/>
<path d="M264.225 222.442H273.473L273.984 219.117L263.777 219.634L264.225 222.442Z" fill="#252525"/>
<path opacity="0.3" d="M264.225 222.442H273.473L273.984 219.117L263.777 219.634L264.225 222.442Z" fill="#F4AE3D"/>
<path d="M304.652 210.976L313.761 209.355L313.711 205.984L303.744 208.289L304.652 210.976Z" fill="#252525"/>
<path opacity="0.3" d="M304.652 210.976L313.761 209.355L313.711 205.984L303.744 208.289L304.652 210.976Z" fill="#F4AE3D"/>
<path d="M313.832 216.961C314.135 217.041 314.456 217.002 314.733 216.852C314.815 216.783 314.879 216.694 314.918 216.594C314.958 216.494 314.972 216.385 314.96 216.277C314.957 216.206 314.938 216.137 314.902 216.077C314.867 216.016 314.818 215.965 314.758 215.928C314.229 215.612 312.785 216.322 312.621 216.406C312.604 216.415 312.589 216.429 312.579 216.446C312.569 216.463 312.564 216.483 312.565 216.503C312.563 216.524 312.569 216.545 312.58 216.562C312.592 216.58 312.608 216.593 312.628 216.6C313.014 216.767 313.418 216.888 313.832 216.961ZM314.513 216.07C314.562 216.074 314.609 216.089 314.651 216.116C314.683 216.131 314.708 216.156 314.725 216.188C314.742 216.219 314.749 216.254 314.746 216.29C314.759 216.361 314.753 216.434 314.73 216.502C314.707 216.57 314.667 216.63 314.613 216.677C314.361 216.865 313.743 216.794 312.937 216.49C313.426 216.235 313.964 216.091 314.513 216.07Z" fill="#252525"/>
<path d="M312.653 216.606C312.671 216.613 312.691 216.613 312.71 216.606C313.208 216.4 314.046 215.522 314.015 214.992C314.009 214.897 313.973 214.806 313.911 214.735C313.849 214.664 313.766 214.615 313.674 214.598C313.594 214.575 313.51 214.57 313.428 214.584C313.346 214.599 313.269 214.632 313.201 214.682C312.666 215.07 312.571 216.445 312.571 216.503C312.569 216.521 312.572 216.539 312.58 216.555C312.587 216.571 312.6 216.585 312.615 216.593C312.626 216.602 312.639 216.607 312.653 216.606ZM313.567 214.785H313.618C313.775 214.831 313.8 214.915 313.807 214.986C313.807 215.354 313.227 216.025 312.792 216.277C312.809 215.743 312.995 215.228 313.321 214.811C313.393 214.773 313.476 214.764 313.554 214.785H313.567Z" fill="#252525"/>
<path d="M274.731 93.0605L270.609 94.0605L270.25 97.0758C271.189 99.1097 276.006 97.4108 276.006 97.4108L274.731 93.0605Z" fill="#F9D1AA"/>
<path d="M277.925 93.6669L277.692 98.1414L274.975 97.9477L274.445 92.9824L277.925 93.6669Z" fill="#F9D1AA"/>
<path d="M340.561 211.147C320.426 208.115 305.133 170.48 305.133 126.894C305.133 83.3078 320.426 45.6728 340.561 42.6406L359.328 39.8164V213.971L340.561 211.147Z" fill="#407BFF"/>
<path d="M340.561 211.147C320.426 208.115 305.133 170.48 305.133 126.894C305.133 83.3078 320.426 45.6728 340.561 42.6406L359.328 39.8164V213.971L340.561 211.147Z" fill="#67AD74"/>
<path d="M359.329 213.971C377.493 213.971 392.217 174.985 392.217 126.894C392.217 78.8023 377.493 39.8164 359.329 39.8164C341.166 39.8164 326.441 78.8023 326.441 126.894C326.441 174.985 341.166 213.971 359.329 213.971Z" fill="#69D27B"/>
<path opacity="0.4" d="M360.216 211.765C345.402 211.765 329.541 177.661 329.541 126.894C329.541 76.1282 345.402 42.0234 360.216 42.0234C375.031 42.0234 390.898 76.1282 390.898 126.894C390.898 177.661 375.037 211.765 360.216 211.765ZM360.216 42.6538C345.717 42.6538 330.171 76.5001 330.171 126.894C330.171 177.289 345.679 211.135 360.216 211.135C374.753 211.135 390.268 177.282 390.268 126.894C390.268 76.5064 374.728 42.6538 360.216 42.6538Z" fill="#FAFAFA"/>
<path d="M365.417 83.6855C355.331 83.6855 347.205 103.033 347.205 126.9C347.205 150.767 355.356 170.107 365.417 170.107C375.479 170.107 383.63 150.767 383.63 126.9C383.63 103.033 375.479 83.6855 365.417 83.6855ZM379.917 126.9C379.917 133.765 378.807 140.006 376.992 144.689L371.734 126.553L376.891 108.794C378.782 113.504 379.942 119.871 379.942 126.893L379.917 126.9ZM368.828 100.606C371.053 100.606 373.115 102.156 374.848 104.823L370.139 121.157L364.705 102.497C365.784 101.343 367.275 100.662 368.853 100.599L368.828 100.606ZM357.752 126.9C357.752 118.011 359.611 110.162 362.454 105.403L368.607 126.553L362.366 148.188C359.586 143.422 357.777 135.662 357.777 126.893L357.752 126.9ZM368.828 153.194C368.021 153.149 367.23 152.945 366.503 152.592C365.776 152.239 365.126 151.745 364.592 151.138L370.164 131.93L375.025 148.724C373.26 151.555 371.141 153.187 368.853 153.187L368.828 153.194Z" fill="#67AD74"/>
<path d="M197.128 15.0355C184.947 6.73176 168.34 9.87564 160.036 22.0576C151.732 34.2395 154.876 50.8465 167.058 59.1502C179.24 67.454 195.847 64.3101 204.151 52.1282C212.454 39.9462 209.31 23.3393 197.128 15.0355Z" fill="white" stroke="#263238" stroke-linejoin="round"/>
<path d="M194.177 19.3637C184.386 12.6898 171.038 15.2166 164.364 25.0076C157.69 34.7985 160.217 48.146 170.008 54.82C179.799 61.494 193.147 58.9671 199.821 49.1762C206.495 39.3852 203.968 26.0377 194.177 19.3637Z" fill="#F8928C" stroke="#263238" stroke-linejoin="round"/>
<path fill-rule="evenodd" clip-rule="evenodd" d="M188.193 47.4222C193.719 44.2322 195.612 37.167 192.422 31.6418C189.232 26.1165 182.166 24.2234 176.641 27.4134C171.116 30.6034 169.223 37.6686 172.413 43.1939C175.603 48.7191 182.668 50.6123 188.193 47.4222ZM182.011 43.6955L179.664 45.0505C179.108 45.3718 178.829 45.5324 178.601 45.5209C178.353 45.5084 178.127 45.3786 177.991 45.1716C177.866 44.98 177.864 44.659 177.861 44.017L177.802 32.048C177.799 31.3965 177.797 31.0708 177.923 30.8769C178.058 30.6674 178.286 30.5356 178.535 30.5228C178.766 30.5109 179.047 30.6748 179.61 31.0025L181.99 32.3874C182.399 32.6256 182.604 32.7448 182.757 32.9067C182.924 33.083 183.047 33.2959 183.117 33.5285C183.18 33.7421 183.181 33.979 183.183 34.4527L183.214 41.6022C183.216 42.0829 183.217 42.3232 183.154 42.54C183.085 42.7759 182.96 42.9921 182.791 43.1707C182.636 43.3348 182.428 43.455 182.011 43.6955ZM190.384 38.8613L187.663 40.4322C187.102 40.7564 186.821 40.9185 186.591 40.9063C186.343 40.8931 186.116 40.7617 185.981 40.5528C185.856 40.3596 185.857 40.0355 185.86 39.3876L185.873 36.2731C185.876 35.6333 185.877 35.3134 186.002 35.1218C186.137 34.9147 186.363 34.7842 186.609 34.7705C186.838 34.7578 187.116 34.9162 187.671 35.233L190.38 36.7765C190.943 37.0979 191.225 37.2586 191.331 37.4633C191.444 37.6845 191.445 37.947 191.332 38.1689C191.228 38.3743 190.947 38.5366 190.384 38.8613Z" fill="#263238"/>
<path d="M56.74 114.337C44.9579 117.494 37.9659 129.604 41.1229 141.386C44.2799 153.168 56.3904 160.16 68.1725 157.003C79.9546 153.846 86.9466 141.736 83.7896 129.954C80.6326 118.172 68.5221 111.18 56.74 114.337Z" fill="white" stroke="#263238" stroke-linejoin="round"/>
<path d="M57.8624 118.525C48.3928 121.062 42.7731 130.795 45.3105 140.265C47.8479 149.735 57.5815 155.354 67.051 152.817C76.5206 150.28 82.1403 140.546 79.6029 131.076C77.0656 121.607 67.332 115.987 57.8624 118.525Z" fill="#FFC200" stroke="#263238" stroke-linejoin="round"/>
<path d="M69.8774 130.924C69.5919 128.366 67.3387 127.553 64.5057 127.368L64.4559 123.812L62.2638 123.858L62.3123 127.32C61.736 127.332 61.1471 127.356 60.5621 127.379L60.5137 123.895L58.3228 123.941L58.3716 127.495C57.8972 127.514 57.4312 127.533 56.9768 127.543L56.9763 127.532L53.9529 127.594L53.9857 129.905C53.9857 129.905 55.6041 129.841 55.5776 129.871C56.4655 129.852 56.7616 130.355 56.8518 130.793C56.9877 140.532 56.8518 130.793 56.9877 140.532C56.9526 140.809 56.7945 141.252 56.1742 141.266C56.2026 141.29 54.5807 141.299 54.5807 141.299L54.1813 143.893L57.034 143.833C57.5649 143.822 58.0873 143.82 58.6002 143.813L58.6514 147.409L60.8411 147.363L60.7913 143.806C61.3927 143.805 61.9746 143.798 62.5427 143.785L62.5912 147.327L64.7833 147.281L64.7338 143.691C68.4163 143.406 70.9828 142.435 71.2554 139.012C71.4755 136.255 70.1475 135.055 68.0485 134.603C69.3106 133.938 70.0894 132.795 69.8774 130.924ZM66.918 138.676C66.9568 141.363 62.2918 141.155 60.8062 141.188L60.7402 136.423C62.2262 136.393 66.879 135.874 66.918 138.676ZM65.8045 131.976C65.838 134.421 61.9471 134.217 60.7096 134.243L60.6493 129.922C61.8868 129.896 65.7686 129.426 65.8045 131.976Z" fill="#263238"/>
<path d="M126.141 110.783C121.249 119.572 124.408 130.662 133.197 135.554C141.986 140.445 153.076 137.286 157.967 128.497C162.859 119.709 159.7 108.619 150.911 103.727C142.122 98.8355 131.032 101.995 126.141 110.783Z" fill="#C5D7FF" stroke="#263238" stroke-linejoin="round"/>
<path d="M136.219 118.399L133.548 120.292L131.655 117.621L134.325 115.728L136.219 118.399ZM142.705 113.802L145.95 118.38L148.621 116.487L143.483 109.238L136.233 114.376L138.126 117.047L142.705 113.802ZM149.973 118.395L147.302 120.288L149.195 122.959L151.866 121.066L149.973 118.395ZM140.816 124.885L137.571 120.307L134.9 122.2L140.038 129.449L147.287 124.311L145.394 121.64L140.816 124.885ZM141.371 121.626L144.042 119.733L142.149 117.062L139.478 118.955L141.371 121.626Z" fill="#263238"/>
</svg>
